<?xml version="1.0"?>
<svg xmlns="http://www.w3.org/2000/svg" height="512px" viewBox="0 0 512 512" width="512px"><g id="_24hours_7days" data-name="24hours_7days"><path d="m456 248a7.9979 7.9979 0 0 0 -8 8 192.0091 192.0091 0 1 1 -71.436-149.4219h-33.7359a8 8 0 0 0 0 16h54.5938a8.031 8.031 0 0 0 8-8v-54.5937a8 8 0 1 0 -16 0v36.4765a207.9878 207.9878 0 0 0 -280.5 306.6172 208 208 0 0 0 355.0781-147.0781 7.9979 7.9979 0 0 0 -8-8z" fill="#FFFFFF"/><path d="m300.1914 198.5859-40.7656 112a7.9976 7.9976 0 1 0 15.0312 5.4688l40.7657-112a7.9976 7.9976 0 0 0 -15.0313-5.4688z" fill="#FFFFFF"/><path d="m188.4844 241.5313a29.3557 29.3557 0 0 0 -8.6524-20.8907c-11.164-11.1718-30.6172-11.1718-41.7812 0a29.3437 29.3437 0 0 0 -8.6563 20.8907 8 8 0 0 0 16 0 13.4662 13.4662 0 0 1 3.9688-9.5782 13.8555 13.8555 0 0 1 19.1562 0 13.5422 13.5422 0 0 1 0 19.1485l-36.7812 36.7812a7.9993 7.9993 0 0 0 5.6562 13.6563h43.09a8 8 0 0 0 0-16h-23.7775l23.125-23.125a29.3376 29.3376 0 0 0 8.6524-20.8828z" fill="#FFFFFF"/><path d="m234.09 301.5391a7.9979 7.9979 0 0 0 8-8v-11.93h4.129a8 8 0 0 0 0-16h-4.129v-45.625a8.0028 8.0028 0 0 0 -14.6914-4.3906l-35.164 53.625a8.0017 8.0017 0 0 0 6.6914 12.3906h27.164v11.93a7.998 7.998 0 0 0 8 8zm-20.3515-35.93 12.3515-18.836v18.836z" fill="#FFFFFF"/><path d="m342.9531 293.5391a8 8 0 0 0 16 0v-16.4691a72.2724 72.2724 0 0 1 21.3047-51.43 7.9993 7.9993 0 0 0 -5.6562-13.6562h-47.293a8 8 0 0 0 0 16h30.4258a88.1067 88.1067 0 0 0 -14.7813 49.0862z" fill="#FFFFFF"/></g></svg>
