<svg width="434" height="279" viewBox="0 0 434 279" fill="none" xmlns="http://www.w3.org/2000/svg">
<g filter="url(#filter0_d)">
<path fill-rule="evenodd" clip-rule="evenodd" d="M36 22C30.4772 22 26 26.4771 26 32V214C26 219.523 30.4771 224 36 224H317L332 248.5C332.5 238.5 341.565 224 353 224H398C403.523 224 408 219.523 408 214V32C408 26.4772 403.523 22 398 22H36Z" fill="#F7F3FC"/>
<path d="M317 224L317.213 223.869L317.14 223.75H317V224ZM332 248.5L331.787 248.631L332.209 249.321L332.25 248.512L332 248.5ZM26.25 32C26.25 26.6152 30.6152 22.25 36 22.25V21.75C30.3391 21.75 25.75 26.3391 25.75 32H26.25ZM26.25 214V32H25.75V214H26.25ZM36 223.75C30.6152 223.75 26.25 219.385 26.25 214H25.75C25.75 219.661 30.3391 224.25 36 224.25V223.75ZM317 223.75H36V224.25H317V223.75ZM332.213 248.369L317.213 223.869L316.787 224.131L331.787 248.631L332.213 248.369ZM353 223.75C347.173 223.75 341.983 227.441 338.201 232.347C334.418 237.256 332.003 243.428 331.75 248.488L332.25 248.512C332.497 243.572 334.865 237.494 338.597 232.653C342.331 227.809 347.391 224.25 353 224.25V223.75ZM398 223.75H353V224.25H398V223.75ZM407.75 214C407.75 219.385 403.385 223.75 398 223.75V224.25C403.661 224.25 408.25 219.661 408.25 214H407.75ZM407.75 32V214H408.25V32H407.75ZM398 22.25C403.385 22.25 407.75 26.6152 407.75 32H408.25C408.25 26.3391 403.661 21.75 398 21.75V22.25ZM36 22.25H398V21.75H36V22.25Z" fill="#3213B4" fill-opacity="0.5"/>
</g>
<defs>
<filter id="filter0_d" x="0.75" y="0.75" width="432.5" height="277.571" filterUnits="userSpaceOnUse" color-interpolation-filters="sRGB">
<feFlood flood-opacity="0" result="BackgroundImageFix"/>
<feColorMatrix in="SourceAlpha" type="matrix" values="0 0 0 0 0 0 0 0 0 0 0 0 0 0 0 0 0 0 127 0"/>
<feOffset dy="4"/>
<feGaussianBlur stdDeviation="12.5"/>
<feColorMatrix type="matrix" values="0 0 0 0 0.117647 0 0 0 0 0.00784314 0 0 0 0 0.258824 0 0 0 0.05 0"/>
<feBlend mode="normal" in2="BackgroundImageFix" result="effect1_dropShadow"/>
<feBlend mode="normal" in="SourceGraphic" in2="effect1_dropShadow" result="shape"/>
</filter>
</defs>
</svg>
