<svg width="428" height="307" viewBox="0 0 428 307" fill="none" xmlns="http://www.w3.org/2000/svg">
<g filter="url(#filter0_d)">
<mask id="path-1-inside-1" fill="white">
<path fill-rule="evenodd" clip-rule="evenodd" d="M117.283 45.0001L101.993 21.375C101.788 29.6197 95.8491 41.062 87.3727 45.0001H30C27.2386 45.0001 25 47.2386 25 50.0001V273C25 275.761 27.2386 278 30 278H398C400.761 278 403 275.761 403 273V50.0001C403 47.2386 400.761 45.0001 398 45.0001H117.283Z"/>
</mask>
<path fill-rule="evenodd" clip-rule="evenodd" d="M117.283 45.0001L101.993 21.375C101.788 29.6197 95.8491 41.062 87.3727 45.0001H30C27.2386 45.0001 25 47.2386 25 50.0001V273C25 275.761 27.2386 278 30 278H398C400.761 278 403 275.761 403 273V50.0001C403 47.2386 400.761 45.0001 398 45.0001H117.283Z" fill="#F7F3FC"/>
<path d="M101.993 21.375L102.413 21.1033L101.534 19.7448L101.494 21.3625L101.993 21.375ZM117.283 45.0001L116.863 45.2717L117.011 45.5001H117.283V45.0001ZM87.3727 45.0001V45.5001H87.4832L87.5834 45.4535L87.3727 45.0001ZM101.574 21.6467L116.863 45.2717L117.703 44.7284L102.413 21.1033L101.574 21.6467ZM87.5834 45.4535C91.9422 43.4284 95.613 39.495 98.2159 35.0554C100.819 30.6151 102.388 25.6114 102.493 21.3875L101.494 21.3625C101.393 25.3834 99.8897 30.2232 97.3532 34.5497C94.8162 38.8769 91.2796 42.6336 87.162 44.5466L87.5834 45.4535ZM30 45.5001H87.3727V44.5001H30V45.5001ZM25.5 50.0001C25.5 47.5148 27.5147 45.5001 30 45.5001V44.5001C26.9624 44.5001 24.5 46.9625 24.5 50.0001H25.5ZM25.5 273V50.0001H24.5V273H25.5ZM30 277.5C27.5147 277.5 25.5 275.485 25.5 273H24.5C24.5 276.038 26.9624 278.5 30 278.5V277.5ZM398 277.5H30V278.5H398V277.5ZM402.5 273C402.5 275.485 400.485 277.5 398 277.5V278.5C401.038 278.5 403.5 276.038 403.5 273H402.5ZM402.5 50.0001V273H403.5V50.0001H402.5ZM398 45.5001C400.485 45.5001 402.5 47.5148 402.5 50.0001H403.5C403.5 46.9625 401.038 44.5001 398 44.5001V45.5001ZM117.283 45.5001H398V44.5001H117.283V45.5001Z" fill="#3213B4" fill-opacity="0.5" mask="url(#path-1-inside-1)"/>
</g>
<defs>
<filter id="filter0_d" x="0" y="0.375" width="428" height="306.625" filterUnits="userSpaceOnUse" color-interpolation-filters="sRGB">
<feFlood flood-opacity="0" result="BackgroundImageFix"/>
<feColorMatrix in="SourceAlpha" type="matrix" values="0 0 0 0 0 0 0 0 0 0 0 0 0 0 0 0 0 0 127 0"/>
<feOffset dy="4"/>
<feGaussianBlur stdDeviation="12.5"/>
<feColorMatrix type="matrix" values="0 0 0 0 0.117647 0 0 0 0 0.00784314 0 0 0 0 0.258824 0 0 0 0.05 0"/>
<feBlend mode="normal" in2="BackgroundImageFix" result="effect1_dropShadow"/>
<feBlend mode="normal" in="SourceGraphic" in2="effect1_dropShadow" result="shape"/>
</filter>
</defs>
</svg>
