<svg width="322" height="301" viewBox="0 0 322 301" fill="none" xmlns="http://www.w3.org/2000/svg">
<g filter="url(#filter0_d)">
<mask id="path-1-inside-1" fill="white">
<path fill-rule="evenodd" clip-rule="evenodd" d="M30 21C27.2386 21 25 23.2386 25 26V242C25 244.761 27.2386 247 30 247H208L223 271.5C223.5 261.5 232.565 247 244 247H292C294.761 247 297 244.761 297 242V26C297 23.2386 294.761 21 292 21H30Z"/>
</mask>
<path fill-rule="evenodd" clip-rule="evenodd" d="M30 21C27.2386 21 25 23.2386 25 26V242C25 244.761 27.2386 247 30 247H208L223 271.5C223.5 261.5 232.565 247 244 247H292C294.761 247 297 244.761 297 242V26C297 23.2386 294.761 21 292 21H30Z" fill="#F7F3FC"/>
<path d="M208 247L208.426 246.739L208.28 246.5H208V247ZM223 271.5L222.574 271.761L223.419 273.141L223.499 271.525L223 271.5ZM25.5 26C25.5 23.5147 27.5147 21.5 30 21.5V20.5C26.9624 20.5 24.5 22.9624 24.5 26H25.5ZM25.5 242V26H24.5V242H25.5ZM30 246.5C27.5147 246.5 25.5 244.485 25.5 242H24.5C24.5 245.038 26.9624 247.5 30 247.5V246.5ZM208 246.5H30V247.5H208V246.5ZM223.426 271.239L208.426 246.739L207.574 247.261L222.574 271.761L223.426 271.239ZM244 246.5C238.064 246.5 232.809 250.258 229.003 255.195C225.194 260.136 222.757 266.357 222.501 271.475L223.499 271.525C223.743 266.643 226.088 260.614 229.795 255.805C233.505 250.992 238.501 247.5 244 247.5V246.5ZM292 246.5H244V247.5H292V246.5ZM296.5 242C296.5 244.485 294.485 246.5 292 246.5V247.5C295.038 247.5 297.5 245.038 297.5 242H296.5ZM296.5 26V242H297.5V26H296.5ZM292 21.5C294.485 21.5 296.5 23.5147 296.5 26H297.5C297.5 22.9624 295.038 20.5 292 20.5V21.5ZM30 21.5H292V20.5H30V21.5Z" fill="#3213B4" fill-opacity="0.5" mask="url(#path-1-inside-1)"/>
</g>
<defs>
<filter id="filter0_d" x="0" y="0" width="322" height="300.5" filterUnits="userSpaceOnUse" color-interpolation-filters="sRGB">
<feFlood flood-opacity="0" result="BackgroundImageFix"/>
<feColorMatrix in="SourceAlpha" type="matrix" values="0 0 0 0 0 0 0 0 0 0 0 0 0 0 0 0 0 0 127 0"/>
<feOffset dy="4"/>
<feGaussianBlur stdDeviation="12.5"/>
<feColorMatrix type="matrix" values="0 0 0 0 0.117647 0 0 0 0 0.00784314 0 0 0 0 0.258824 0 0 0 0.05 0"/>
<feBlend mode="normal" in2="BackgroundImageFix" result="effect1_dropShadow"/>
<feBlend mode="normal" in="SourceGraphic" in2="effect1_dropShadow" result="shape"/>
</filter>
</defs>
</svg>
