<svg width="430" height="253" viewBox="0 0 430 253" fill="none" xmlns="http://www.w3.org/2000/svg">
<g filter="url(#filter0_d)">
<path fill-rule="evenodd" clip-rule="evenodd" d="M149.636 45.0001L134.994 22.375C134.803 30.0059 129.702 40.3759 122.223 45.0001H36C30.4772 45.0001 26 49.4772 26 55.0001V213C26 218.523 30.4772 223 36 223H394C399.523 223 404 218.523 404 213V55.0001C404 49.4772 399.523 45.0001 394 45.0001H149.636Z" fill="#F7F3FC"/>
<path d="M134.994 22.375L135.203 22.2392L134.764 21.5599L134.744 22.3688L134.994 22.375ZM149.636 45.0001L149.426 45.1359L149.5 45.2501H149.636V45.0001ZM122.223 45.0001V45.2501H122.294L122.354 45.2127L122.223 45.0001ZM134.784 22.5108L149.426 45.1359L149.846 44.8642L135.203 22.2392L134.784 22.5108ZM122.354 45.2127C126.14 42.8717 129.313 39.0856 131.561 34.9341C133.81 30.7829 135.147 26.2442 135.244 22.3812L134.744 22.3688C134.65 26.1366 133.341 30.5984 131.122 34.696C128.902 38.7933 125.784 42.5042 122.091 44.7874L122.354 45.2127ZM36 45.2501H122.223V44.7501H36V45.2501ZM26.25 55.0001C26.25 49.6153 30.6152 45.2501 36 45.2501V44.7501C30.3391 44.7501 25.75 49.3391 25.75 55.0001H26.25ZM26.25 213V55.0001H25.75V213H26.25ZM36 222.75C30.6152 222.75 26.25 218.385 26.25 213H25.75C25.75 218.661 30.3391 223.25 36 223.25V222.75ZM394 222.75H36V223.25H394V222.75ZM403.75 213C403.75 218.385 399.385 222.75 394 222.75V223.25C399.661 223.25 404.25 218.661 404.25 213H403.75ZM403.75 55.0001V213H404.25V55.0001H403.75ZM394 45.2501C399.385 45.2501 403.75 49.6153 403.75 55.0001H404.25C404.25 49.3391 399.661 44.7501 394 44.7501V45.2501ZM149.636 45.2501H394V44.7501H149.636V45.2501Z" fill="#3213B4" fill-opacity="0.5"/>
</g>
<defs>
<filter id="filter0_d" x="0.75" y="0.560059" width="428.5" height="251.69" filterUnits="userSpaceOnUse" color-interpolation-filters="sRGB">
<feFlood flood-opacity="0" result="BackgroundImageFix"/>
<feColorMatrix in="SourceAlpha" type="matrix" values="0 0 0 0 0 0 0 0 0 0 0 0 0 0 0 0 0 0 127 0"/>
<feOffset dy="4"/>
<feGaussianBlur stdDeviation="12.5"/>
<feColorMatrix type="matrix" values="0 0 0 0 0.117647 0 0 0 0 0.00784314 0 0 0 0 0.258824 0 0 0 0.05 0"/>
<feBlend mode="normal" in2="BackgroundImageFix" result="effect1_dropShadow"/>
<feBlend mode="normal" in="SourceGraphic" in2="effect1_dropShadow" result="shape"/>
</filter>
</defs>
</svg>
