<svg width="436" height="278" viewBox="0 0 436 278" fill="none" xmlns="http://www.w3.org/2000/svg">
<g filter="url(#filter0_d)">
<path fill-rule="evenodd" clip-rule="evenodd" d="M154.636 45.0001L139.994 22.375C139.803 30.0059 134.702 40.3759 127.223 45.0001H36C30.4772 45.0001 26 49.4772 26 55.0001V238C26 243.523 30.4772 248 36 248H400C405.523 248 410 243.523 410 238V55.0001C410 49.4772 405.523 45.0001 400 45.0001H154.636Z" fill="#F7F3FC"/>
<path d="M139.994 22.375L140.203 22.2392L139.764 21.5599L139.744 22.3688L139.994 22.375ZM154.636 45.0001L154.426 45.1359L154.5 45.2501H154.636V45.0001ZM127.223 45.0001V45.2501H127.294L127.354 45.2127L127.223 45.0001ZM139.784 22.5108L154.426 45.1359L154.846 44.8642L140.203 22.2392L139.784 22.5108ZM127.354 45.2127C131.14 42.8717 134.313 39.0856 136.561 34.9341C138.81 30.7829 140.147 26.2442 140.244 22.3812L139.744 22.3688C139.65 26.1366 138.341 30.5984 136.122 34.696C133.902 38.7933 130.784 42.5042 127.091 44.7874L127.354 45.2127ZM36 45.2501H127.223V44.7501H36V45.2501ZM26.25 55.0001C26.25 49.6153 30.6152 45.2501 36 45.2501V44.7501C30.3391 44.7501 25.75 49.3391 25.75 55.0001H26.25ZM26.25 238V55.0001H25.75V238H26.25ZM36 247.75C30.6152 247.75 26.25 243.385 26.25 238H25.75C25.75 243.661 30.3391 248.25 36 248.25V247.75ZM400 247.75H36V248.25H400V247.75ZM409.75 238C409.75 243.385 405.385 247.75 400 247.75V248.25C405.661 248.25 410.25 243.661 410.25 238H409.75ZM409.75 55.0001V238H410.25V55.0001H409.75ZM400 45.2501C405.385 45.2501 409.75 49.6153 409.75 55.0001H410.25C410.25 49.3391 405.661 44.7501 400 44.7501V45.2501ZM154.636 45.2501H400V44.7501H154.636V45.2501Z" fill="#3213B4" fill-opacity="0.5"/>
</g>
<defs>
<filter id="filter0_d" x="0.75" y="0.560059" width="434.5" height="276.69" filterUnits="userSpaceOnUse" color-interpolation-filters="sRGB">
<feFlood flood-opacity="0" result="BackgroundImageFix"/>
<feColorMatrix in="SourceAlpha" type="matrix" values="0 0 0 0 0 0 0 0 0 0 0 0 0 0 0 0 0 0 127 0"/>
<feOffset dy="4"/>
<feGaussianBlur stdDeviation="12.5"/>
<feColorMatrix type="matrix" values="0 0 0 0 0.117647 0 0 0 0 0.00784314 0 0 0 0 0.258824 0 0 0 0.05 0"/>
<feBlend mode="normal" in2="BackgroundImageFix" result="effect1_dropShadow"/>
<feBlend mode="normal" in="SourceGraphic" in2="effect1_dropShadow" result="shape"/>
</filter>
</defs>
</svg>
